<?xml version="1.0" standalone="no"?>
<!DOCTYPE svg PUBLIC "-//W3C//DTD SVG 20010904//EN"
 "http://www.w3.org/TR/2001/REC-SVG-20010904/DTD/svg10.dtd">
<svg version="1.0" xmlns="http://www.w3.org/2000/svg"
 width="750.000000pt" height="750.000000pt" viewBox="0 0 750.000000 750.000000"
 preserveAspectRatio="xMidYMid meet">
<metadata>
Created by potrace 1.10, written by Peter Selinger 2001-2011
</metadata>
<g transform="translate(0.000000,750.000000) scale(0.100000,-0.100000)"
fill="#000000" stroke="none">
<path d="M3511 7355 c-21 -10 -66 -15 -120 -15 -47 0 -117 -6 -156 -14 -133
-28 -190 -38 -260 -46 -38 -4 -83 -13 -98 -19 -16 -6 -39 -11 -52 -11 -14 0
-39 -6 -57 -14 -51 -21 -99 -37 -138 -46 -19 -4 -60 -18 -90 -30 -30 -12 -64
-24 -75 -27 -19 -4 -195 -75 -275 -110 -19 -8 -51 -22 -70 -30 -19 -8 -42 -19
-50 -24 -8 -4 -40 -20 -70 -35 -30 -14 -69 -37 -87 -50 -17 -13 -38 -24 -47
-24 -8 0 -18 -5 -21 -11 -4 -5 -17 -15 -28 -20 -12 -5 -35 -18 -52 -29 -16
-11 -37 -23 -45 -27 -38 -18 -273 -188 -311 -225 -8 -8 -43 -36 -79 -63 -82
-63 -259 -239 -331 -330 -31 -38 -67 -81 -81 -95 -29 -30 -238 -307 -238 -316
0 -3 -12 -23 -27 -43 -31 -40 -37 -50 -95 -159 -22 -42 -55 -104 -74 -137 -18
-33 -38 -70 -44 -83 -35 -80 -63 -141 -76 -164 -8 -14 -14 -33 -14 -41 0 -9
-7 -29 -15 -46 -8 -17 -22 -45 -30 -62 -8 -17 -15 -40 -15 -52 0 -12 -12 -53
-26 -92 -14 -38 -29 -86 -34 -105 -4 -19 -13 -48 -19 -63 -6 -16 -11 -41 -11
-56 0 -16 -7 -45 -15 -64 -8 -20 -15 -49 -15 -64 0 -15 -7 -46 -15 -68 -8 -22
-14 -71 -15 -110 0 -38 -7 -92 -15 -119 -8 -27 -15 -79 -15 -115 -1 -36 -7
-93 -15 -126 -19 -79 -19 -327 0 -415 8 -36 15 -105 15 -155 0 -49 7 -117 15
-150 8 -33 15 -82 15 -110 0 -50 19 -150 46 -236 8 -26 14 -55 14 -65 0 -11
12 -50 26 -89 13 -38 34 -99 45 -135 11 -36 27 -78 35 -93 8 -16 14 -36 14
-45 0 -9 7 -26 15 -36 8 -11 15 -29 15 -41 0 -22 203 -433 239 -483 11 -16 25
-40 31 -53 6 -13 19 -37 30 -54 11 -16 23 -37 27 -45 16 -35 221 -300 271
-350 30 -30 78 -84 107 -120 54 -68 204 -217 290 -290 28 -24 83 -72 123 -108
40 -36 87 -74 105 -85 18 -11 35 -24 38 -29 4 -5 16 -15 27 -21 12 -7 55 -36
97 -65 41 -28 78 -52 80 -52 4 0 100 -55 175 -100 44 -27 398 -200 409 -200 7
0 22 -5 34 -12 31 -18 86 -38 127 -48 19 -4 60 -18 90 -30 30 -12 75 -26 100
-30 49 -9 129 -32 173 -49 16 -6 47 -11 70 -11 23 0 64 -7 91 -15 27 -8 65
-15 85 -15 20 0 58 -7 85 -15 72 -22 865 -22 946 0 30 8 72 15 92 15 20 0 49
5 65 11 15 7 64 15 108 19 44 4 95 12 113 19 80 28 100 34 146 42 27 4 54 13
60 19 5 5 22 10 36 10 14 0 35 7 46 15 10 8 33 15 50 15 16 0 39 7 50 15 10 8
29 15 40 15 12 0 27 7 34 15 7 8 19 15 27 15 8 0 27 6 41 14 53 28 162 76 175
76 7 0 17 4 22 9 6 5 55 32 110 61 54 28 132 72 172 96 40 24 75 44 77 44 4 0
78 50 171 114 17 12 32 24 33 29 2 4 10 7 18 7 8 0 14 4 14 9 0 5 8 12 18 15
9 3 32 19 50 35 17 16 60 51 94 78 81 62 360 341 423 424 28 35 62 76 76 90
41 41 155 195 175 239 4 8 20 31 36 51 15 20 28 40 28 44 0 4 13 24 29 44 16
20 38 54 50 76 38 70 35 64 85 160 8 17 25 53 37 80 12 28 39 88 61 135 22 47
47 101 55 120 9 19 22 48 29 63 8 16 14 36 14 45 0 9 7 26 15 36 8 11 15 32
15 48 0 15 6 42 14 60 23 56 38 101 46 143 12 57 31 124 46 168 8 20 14 64 14
96 0 32 7 80 15 107 8 27 15 67 15 89 0 22 7 62 15 89 21 70 21 683 0 771 -8
33 -14 80 -15 105 0 25 -7 67 -15 94 -8 27 -15 80 -15 119 0 38 -6 83 -14 100
-20 48 -38 125 -45 192 -4 33 -12 70 -19 82 -7 12 -12 33 -12 46 0 14 -7 30
-15 37 -8 7 -15 23 -15 35 0 13 -6 36 -14 52 -17 35 -39 85 -61 143 -19 49
-66 152 -98 215 -33 64 -35 69 -41 85 -4 8 -15 29 -26 45 -10 17 -30 53 -45
80 -27 53 -33 64 -77 133 -16 24 -28 45 -28 47 0 3 -33 49 -72 104 -40 55 -91
125 -113 157 -22 31 -66 84 -97 116 -54 57 -182 197 -203 224 -5 6 -32 31 -60
54 -27 23 -74 65 -102 92 -29 27 -73 64 -97 81 -24 18 -89 67 -145 110 -55 42
-103 77 -107 77 -3 0 -23 13 -43 28 -20 16 -43 32 -51 35 -8 4 -28 16 -45 27
-16 11 -41 24 -54 30 -13 6 -35 19 -50 29 -14 10 -62 38 -106 60 -88 46 -107
56 -132 71 -10 6 -25 13 -33 16 -8 3 -27 12 -42 20 -14 8 -35 14 -45 14 -10 0
-23 4 -29 9 -9 10 -76 36 -129 51 -16 4 -55 18 -85 30 -30 12 -68 25 -85 30
-16 5 -43 13 -60 18 -16 6 -57 18 -90 27 -33 9 -81 23 -106 31 -26 8 -65 14
-87 14 -22 0 -56 7 -75 15 -20 8 -56 15 -79 15 -24 0 -61 5 -83 11 -22 6 -94
14 -160 19 -66 4 -138 12 -160 18 -63 18 -422 15 -464 -3z m449 -115 c200 -17
319 -31 405 -47 44 -8 107 -19 140 -24 83 -11 351 -84 371 -100 6 -5 42 -18
80 -30 38 -11 73 -25 79 -30 5 -5 18 -9 30 -9 11 0 34 -9 52 -19 17 -11 47
-23 67 -26 19 -4 59 -22 88 -41 29 -19 56 -34 61 -34 6 0 102 -51 167 -90 8
-5 56 -32 105 -60 50 -28 117 -71 150 -95 33 -24 71 -52 85 -62 82 -57 220
-171 319 -262 112 -105 304 -313 351 -381 13 -19 38 -51 56 -71 17 -20 58 -76
90 -125 63 -95 73 -111 119 -193 17 -29 46 -78 66 -109 19 -31 46 -82 58 -112
13 -30 40 -91 61 -135 20 -44 41 -91 45 -105 4 -14 20 -50 35 -80 33 -65 65
-165 90 -275 10 -44 28 -116 39 -160 12 -44 25 -118 31 -165 5 -47 14 -114 20
-150 28 -176 32 -236 36 -500 4 -269 3 -293 -21 -432 -14 -81 -25 -168 -25
-192 0 -25 -4 -55 -9 -68 -5 -13 -19 -67 -31 -121 -13 -54 -27 -100 -31 -103
-5 -3 -9 -17 -9 -32 0 -15 -15 -74 -34 -132 -32 -98 -51 -148 -96 -245 -10
-22 -33 -76 -52 -120 -38 -92 -158 -328 -200 -395 -15 -25 -36 -58 -46 -74 -9
-15 -38 -56 -63 -91 -26 -34 -48 -67 -50 -73 -5 -14 -188 -238 -254 -311 -140
-155 -365 -361 -491 -451 -162 -114 -428 -280 -449 -280 -4 0 -23 -11 -43 -25
-20 -14 -44 -25 -53 -25 -9 0 -22 -6 -28 -14 -7 -8 -27 -17 -45 -20 -19 -4
-39 -13 -46 -21 -7 -8 -18 -15 -25 -15 -7 0 -36 -13 -66 -29 -30 -16 -81 -36
-114 -46 -33 -9 -72 -23 -86 -31 -56 -29 -454 -134 -509 -134 -19 0 -91 -12
-160 -25 -117 -24 -145 -26 -420 -25 -329 0 -486 5 -521 18 -13 5 -53 12 -89
16 -86 9 -180 26 -205 36 -11 5 -40 12 -65 15 -62 9 -121 26 -145 42 -11 7
-32 13 -47 13 -15 0 -42 6 -60 14 -18 7 -58 21 -88 30 -50 16 -137 51 -305
125 -33 14 -88 43 -122 63 -35 21 -98 56 -140 78 -121 63 -161 86 -194 115
-17 14 -45 33 -63 42 -77 39 -330 256 -516 443 -189 189 -424 479 -487 599
-19 35 -44 76 -56 91 -12 14 -40 64 -61 111 -21 46 -47 100 -58 119 -59 109
-98 192 -98 206 0 10 -6 25 -13 33 -24 27 -160 422 -177 511 -5 30 -17 100
-25 155 -9 55 -20 114 -26 130 -8 26 -32 295 -40 465 -6 136 2 303 22 415 6
33 14 89 19 125 24 189 50 325 71 378 5 13 9 33 9 46 0 20 19 89 39 141 5 11
20 54 34 95 39 116 94 266 105 286 6 11 32 61 57 113 68 137 168 312 232 409
85 127 294 385 402 497 124 127 295 281 342 306 11 5 64 43 118 84 55 41 116
81 137 90 21 9 48 24 59 34 33 30 373 211 397 211 4 0 45 17 90 39 80 37 460
166 563 191 28 7 77 16 110 21 78 12 146 24 215 38 30 6 82 13 115 15 33 2
125 9 205 15 216 17 232 18 265 15 17 -2 86 -8 155 -14z"/>
<path d="M3480 7110 c-47 -4 -110 -12 -140 -18 -30 -6 -95 -16 -145 -23 -119
-15 -255 -43 -390 -78 -111 -29 -139 -38 -229 -72 -27 -11 -55 -19 -63 -19 -8
0 -37 -11 -65 -25 -27 -14 -56 -25 -63 -25 -8 0 -43 -15 -77 -34 -35 -19 -74
-37 -87 -41 -13 -4 -46 -20 -73 -36 -27 -16 -55 -29 -62 -29 -7 0 -21 -9 -31
-20 -10 -11 -22 -20 -26 -20 -4 0 -43 -23 -86 -50 -43 -28 -89 -55 -103 -62
-14 -7 -43 -26 -65 -43 -22 -18 -51 -38 -65 -45 -14 -7 -30 -21 -37 -30 -6 -9
-31 -29 -55 -45 -41 -28 -91 -68 -150 -121 -14 -13 -31 -24 -36 -24 -15 0
-258 -248 -328 -335 -93 -116 -223 -294 -241 -330 -8 -16 -22 -38 -30 -47 -17
-19 -103 -168 -103 -178 0 -4 -9 -15 -20 -25 -11 -10 -20 -25 -20 -33 0 -8
-11 -35 -24 -61 -35 -67 -76 -158 -76 -169 0 -6 -18 -48 -39 -95 -21 -46 -42
-99 -46 -118 -4 -19 -16 -61 -27 -94 -11 -33 -23 -80 -28 -105 -5 -25 -14 -63
-20 -85 -6 -22 -16 -60 -21 -85 -6 -25 -16 -72 -24 -105 -30 -129 -61 -477
-59 -662 1 -48 4 -55 47 -98 44 -43 50 -45 84 -39 51 9 88 34 276 186 16 13
70 59 120 104 51 44 128 110 172 145 44 36 92 76 106 89 55 52 86 76 122 95
l37 19 154 -78 c136 -69 160 -78 194 -74 65 9 154 73 362 259 47 41 123 106
170 143 47 38 87 72 88 77 2 5 10 9 18 9 8 0 14 4 14 9 0 5 15 19 34 30 18 12
36 30 39 41 3 11 13 23 23 27 9 3 44 33 76 65 87 85 106 98 147 98 32 0 48
-11 147 -108 62 -59 149 -141 195 -182 46 -41 126 -119 179 -172 120 -122 141
-130 257 -94 112 34 124 36 147 24 25 -13 158 -116 225 -173 132 -115 225
-171 271 -161 53 10 132 70 255 193 l120 120 88 1 c48 1 87 -1 87 -3 0 -16
-45 -74 -74 -95 -19 -14 -71 -54 -115 -90 -44 -36 -96 -76 -115 -90 -49 -34
-116 -138 -116 -179 0 -64 66 -137 225 -249 56 -38 107 -77 114 -86 7 -9 18
-16 23 -16 13 0 81 -54 166 -132 49 -45 87 -71 113 -78 39 -11 79 -6 79 9 0 4
27 28 59 54 32 25 74 67 92 94 31 45 52 73 145 187 49 60 67 89 94 145 26 57
25 77 -6 122 -32 47 -108 80 -193 83 -33 1 -66 7 -72 13 -15 15 1 62 58 178
43 87 100 224 122 295 8 26 7 44 -2 72 -16 46 -80 108 -112 108 -13 0 -30 3
-39 6 -11 4 -16 1 -16 -10 0 -9 -12 -21 -26 -26 -14 -6 -42 -24 -62 -40 -20
-17 -42 -30 -49 -30 -6 0 -25 -17 -42 -37 -20 -24 -34 -34 -40 -28 -6 6 -7 15
-3 20 15 22 149 135 160 135 7 0 12 4 12 9 0 4 28 38 63 75 47 49 70 66 90 66
30 0 113 -66 197 -156 30 -33 100 -97 155 -144 55 -47 147 -133 205 -192 115
-118 124 -122 205 -93 22 8 50 15 62 15 12 0 25 5 29 11 10 17 106 59 134 59
17 0 43 -17 77 -47 81 -77 179 -161 230 -200 26 -20 49 -40 51 -44 2 -4 36
-33 75 -65 40 -31 79 -65 87 -74 8 -10 47 -41 85 -70 39 -30 84 -68 100 -85
17 -18 61 -53 97 -79 86 -59 126 -62 178 -12 53 52 58 60 68 116 14 76 -13
391 -52 600 -8 41 -21 113 -30 160 -8 47 -27 123 -41 170 -14 47 -32 109 -40
138 -27 97 -104 291 -159 400 -101 202 -146 285 -176 325 -17 23 -30 46 -30
52 0 6 -17 31 -37 57 -21 25 -72 92 -113 149 -75 104 -118 156 -212 261 -28
31 -55 63 -60 72 -10 18 -287 262 -390 344 -143 114 -467 314 -571 354 -26 10
-55 22 -65 27 -9 5 -35 16 -57 25 -22 8 -78 31 -125 50 -46 20 -90 36 -97 36
-7 0 -27 7 -45 14 -18 8 -64 24 -103 34 -38 11 -119 34 -180 50 -60 17 -159
36 -220 42 -60 7 -139 18 -175 26 -36 7 -76 11 -88 7 -13 -3 -71 -1 -130 5
-146 16 -369 21 -472 12z m430 -115 c17 -10 58 -14 130 -15 58 0 140 -7 183
-15 43 -8 102 -15 130 -15 46 0 115 -15 192 -42 17 -6 50 -14 75 -18 25 -4 58
-12 73 -19 16 -6 39 -11 51 -11 13 0 29 -7 36 -15 7 -8 24 -15 39 -15 14 -1
37 -7 51 -15 14 -8 35 -14 46 -15 12 0 24 -7 28 -15 3 -8 14 -15 25 -15 11 0
37 -7 58 -16 21 -9 53 -23 70 -31 87 -37 109 -47 123 -54 8 -5 48 -25 88 -46
40 -20 78 -43 84 -50 6 -7 14 -13 19 -13 5 0 28 -12 52 -27 58 -38 80 -51 97
-59 19 -9 212 -154 225 -169 6 -6 30 -27 55 -45 60 -46 111 -93 249 -230 132
-132 171 -174 171 -187 0 -5 14 -24 31 -42 38 -43 179 -228 179 -237 0 -3 12
-23 28 -43 31 -41 38 -52 87 -137 19 -33 35 -66 35 -72 0 -7 4 -12 9 -12 8 0
51 -78 51 -93 0 -3 14 -26 30 -50 17 -25 30 -54 30 -65 0 -12 4 -23 9 -26 11
-7 51 -88 51 -104 0 -12 23 -69 46 -114 8 -14 14 -34 14 -45 0 -18 24 -98 43
-143 14 -32 36 -130 46 -200 4 -30 12 -65 19 -77 7 -12 12 -40 12 -62 0 -22 5
-52 10 -67 6 -14 15 -79 20 -143 5 -64 14 -132 19 -151 5 -19 12 -106 15 -192
6 -151 5 -158 -13 -158 -10 0 -26 12 -36 26 -27 42 -127 143 -180 182 -45 34
-243 200 -305 256 -14 12 -38 31 -55 42 -41 26 -71 52 -208 184 -65 63 -125
119 -134 124 -11 6 -21 1 -37 -18 -11 -14 -41 -36 -66 -49 -82 -44 -145 -80
-172 -100 -29 -21 -58 -17 -58 8 0 27 -60 126 -99 162 -52 49 -63 58 -96 79
-45 28 -72 53 -271 252 -100 100 -187 182 -193 182 -6 0 -50 -39 -98 -87 -82
-82 -125 -121 -211 -191 -19 -15 -63 -54 -98 -88 -36 -33 -79 -74 -97 -90 -18
-16 -47 -48 -65 -71 -41 -52 -64 -54 -108 -9 -23 24 -39 33 -54 29 -11 -3 -20
-9 -20 -14 0 -4 -64 -74 -142 -155 -79 -80 -154 -164 -168 -185 -30 -46 -53
-49 -77 -11 -20 30 -103 112 -115 112 -4 0 -18 10 -32 23 -13 13 -46 41 -72
62 -42 36 -133 116 -189 168 -23 21 -54 18 -120 -12 -97 -43 -116 -51 -130
-51 -7 0 -21 -7 -30 -16 -22 -23 -41 -12 -55 33 -18 55 -54 96 -181 208 -62
55 -156 143 -209 195 -183 178 -219 210 -244 210 -17 0 -54 -28 -118 -87 -52
-49 -132 -122 -178 -163 -46 -41 -92 -82 -101 -91 -9 -9 -23 -21 -31 -25 -14
-8 -125 -106 -186 -164 -27 -26 -133 -117 -186 -161 -16 -13 -57 -52 -90 -86
-33 -35 -69 -63 -79 -63 -11 0 -36 14 -57 30 -21 17 -40 30 -43 30 -3 0 -40
20 -81 45 -42 25 -82 45 -89 45 -7 0 -25 14 -41 30 -46 47 -69 40 -161 -47
-44 -41 -103 -92 -130 -113 -28 -20 -69 -55 -93 -77 -23 -22 -73 -64 -109 -94
-37 -30 -82 -69 -100 -86 -19 -18 -36 -33 -38 -33 -3 0 -13 -8 -23 -17 -10
-10 -40 -36 -67 -58 -47 -38 -93 -84 -148 -149 -16 -19 -31 -27 -41 -23 -21 8
-20 31 3 103 10 33 21 109 25 174 4 63 11 135 16 160 5 25 9 74 10 109 0 64
19 168 46 251 8 25 14 58 14 74 0 31 24 114 46 159 8 16 14 41 15 55 0 40 34
161 47 174 7 7 12 18 12 25 0 15 29 81 45 103 6 8 20 42 30 75 11 33 24 66 29
74 25 34 106 190 106 205 0 6 13 26 29 43 15 17 31 37 35 45 3 7 15 27 26 43
11 17 24 39 29 50 5 11 20 32 34 47 14 15 42 53 63 83 90 137 287 350 438 475
39 33 78 66 87 73 8 7 53 42 100 77 46 35 86 68 88 73 2 4 13 13 25 18 34 16
68 36 75 46 3 4 24 17 46 28 22 10 56 32 76 47 20 15 44 28 52 28 9 0 20 6 24
13 10 15 31 28 100 62 28 14 55 30 58 35 3 6 13 10 21 10 7 0 42 13 76 28 35
16 83 37 108 46 25 10 53 22 62 27 30 15 137 49 156 49 10 0 23 5 30 12 14 14
85 36 152 47 25 4 54 12 65 18 29 16 125 33 236 44 53 5 109 13 124 19 14 5
47 10 73 11 26 0 79 6 117 13 100 19 412 20 445 1z m1215 -2446 c4 -5 0 -18
-9 -28 -9 -10 -16 -24 -17 -32 0 -8 -14 -36 -30 -64 -34 -59 -36 -62 -43 -96
-3 -14 -16 -41 -28 -60 -13 -19 -32 -54 -43 -79 -10 -25 -24 -52 -30 -60 -7
-8 -21 -37 -31 -63 -10 -27 -45 -76 -76 -110 -57 -61 -76 -96 -63 -116 9 -16
265 -13 360 4 104 19 105 19 105 -8 0 -16 -25 -50 -78 -103 -125 -128 -292
-358 -292 -404 0 -21 -35 -5 -38 17 -6 39 -193 212 -259 240 -18 7 -33 18 -33
23 0 6 -5 10 -10 10 -6 0 -55 33 -108 73 -53 40 -114 80 -134 89 -58 27 -51
50 33 103 30 19 61 40 69 47 8 7 32 25 55 39 22 14 47 33 56 41 9 9 42 38 75
65 32 28 82 72 111 99 73 70 102 95 153 134 63 48 229 211 236 233 6 19 58 24
69 6z m-497 -240 c-2 -6 -8 -10 -13 -10 -5 0 -11 4 -13 10 -2 6 4 11 13 11 9
0 15 -5 13 -11z"/>
<path d="M3690 6185 c-14 -8 -34 -14 -45 -15 -24 0 -117 -32 -137 -46 -7 -5
-30 -19 -51 -29 -109 -56 -226 -219 -227 -316 0 -26 -7 -63 -15 -82 -20 -48
-20 -167 0 -193 8 -10 15 -32 15 -49 1 -16 12 -48 25 -70 13 -22 34 -58 45
-80 30 -55 85 -114 139 -150 50 -33 113 -65 129 -65 6 0 23 -6 39 -14 73 -37
235 -50 308 -26 40 13 64 22 140 55 93 40 213 157 240 236 11 29 25 61 32 70
7 8 13 24 13 35 0 10 7 41 15 68 27 88 13 257 -26 326 -4 8 -18 34 -30 57 -12
23 -50 72 -85 109 -58 61 -81 80 -124 100 -8 4 -18 12 -21 17 -9 13 -108 47
-139 47 -14 1 -36 7 -50 15 -15 9 -53 14 -95 14 -42 0 -80 -5 -95 -14z m274
-126 c175 -76 273 -195 296 -359 16 -115 3 -214 -38 -295 -51 -101 -124 -182
-181 -200 -12 -4 -38 -17 -57 -30 -27 -18 -54 -25 -130 -30 -119 -9 -184 3
-289 54 -86 42 -195 138 -195 171 0 11 -5 22 -11 26 -34 21 -67 223 -47 289 5
16 9 44 9 62 -1 66 53 152 145 234 27 25 66 51 85 58 19 7 47 20 62 28 36 19
103 30 189 32 57 1 80 -5 162 -40z"/>
<path d="M5594 5600 c-12 -5 -27 -24 -34 -44 -32 -98 62 -176 136 -113 22 19
27 33 28 71 1 41 -3 51 -27 72 -29 25 -65 30 -103 14z"/>
<path d="M1786 5576 c-66 -52 -18 -156 71 -156 53 0 67 22 61 91 -8 82 -72
114 -132 65z"/>
<path d="M2058 5578 c-26 -39 -29 -63 -14 -99 25 -59 102 -79 132 -34 9 13 18
42 21 63 5 34 1 43 -23 66 -38 34 -95 36 -116 4z"/>
<path d="M5354 5582 c-12 -9 -29 -32 -38 -49 -15 -30 -15 -36 -1 -63 19 -37
43 -50 93 -50 40 0 40 0 52 49 12 53 7 85 -18 114 -19 22 -61 22 -88 -1z"/>
<path d="M2284 5542 c-10 -7 -37 -73 -32 -77 2 -1 19 -5 39 -9 34 -6 37 -5 42
22 11 56 -13 88 -49 64z"/>
<path d="M2464 4630 c-32 -17 -93 -63 -135 -103 -41 -39 -156 -148 -255 -242
-403 -381 -485 -462 -559 -554 -162 -201 -166 -201 -177 -1 -10 201 -11 203
-79 265 -61 55 -93 48 -212 -48 -132 -106 -634 -606 -652 -650 -8 -20 -19 -38
-25 -42 -12 -8 -13 -117 -1 -130 5 -6 21 -37 35 -71 51 -124 169 -270 243
-301 20 -8 81 -18 137 -23 106 -9 166 -26 166 -47 0 -14 33 -24 64 -20 10 1
21 -3 23 -9 5 -16 -63 -24 -115 -15 -32 6 -52 5 -73 -6 -20 -10 -42 -13 -65
-8 -50 9 -125 -18 -152 -55 -28 -38 -29 -102 -2 -139 10 -16 24 -50 30 -76 6
-26 20 -59 30 -73 11 -13 20 -32 20 -41 0 -9 18 -42 40 -75 22 -32 40 -66 40
-75 0 -9 9 -22 19 -28 11 -7 26 -23 33 -37 33 -61 91 -155 118 -191 16 -22 36
-55 44 -72 8 -18 32 -50 52 -70 20 -21 42 -51 49 -68 8 -16 23 -39 35 -50 56
-53 74 -73 96 -106 12 -20 38 -46 56 -57 18 -11 41 -33 50 -49 9 -15 36 -47
60 -70 105 -101 169 -160 202 -184 46 -34 120 -45 169 -24 32 13 37 13 51 0
15 -16 36 -76 36 -106 0 -35 59 -97 126 -133 38 -20 74 -36 80 -36 6 0 17 -6
23 -14 7 -8 35 -26 64 -40 29 -14 59 -30 67 -35 32 -21 127 -59 157 -65 23 -4
47 3 90 24 32 16 64 30 70 30 14 0 37 -40 46 -80 8 -34 68 -90 98 -93 13 -1
33 -7 44 -13 11 -6 47 -16 80 -23 33 -7 73 -17 89 -22 15 -5 32 -6 37 -3 5 3
39 -4 76 -15 38 -11 106 -25 153 -31 47 -6 108 -16 135 -22 28 -7 79 -13 115
-14 36 -1 101 -7 145 -12 46 -5 142 -5 225 -1 80 5 208 11 285 13 77 3 147 7
155 10 26 9 182 27 187 22 3 -3 23 4 44 14 21 11 49 20 63 20 14 0 37 5 53 11
15 6 52 15 81 19 29 5 77 20 106 34 28 14 73 30 99 36 25 7 52 18 58 26 6 8
19 14 28 14 24 1 80 56 97 96 23 54 50 61 119 29 44 -21 62 -25 78 -18 12 6
56 25 97 44 41 19 107 59 147 91 39 31 90 66 113 78 52 26 170 145 170 170 0
10 9 40 20 66 l20 47 65 -7 c54 -5 70 -3 102 14 59 31 164 131 259 245 48 58
91 105 95 105 5 0 15 15 23 32 8 18 35 55 60 82 25 26 46 52 46 56 0 4 23 30
50 59 27 29 50 56 50 60 0 4 22 41 50 82 27 40 50 84 50 96 0 12 8 28 18 35 9
7 35 51 56 98 21 47 51 112 67 146 16 33 29 67 29 75 0 8 6 23 14 34 22 33 28
101 12 139 -28 67 -58 74 -316 75 -63 0 -126 0 -140 0 -25 0 -354 -1 -400 -2
-14 0 -279 2 -590 4 -311 2 -1049 3 -1640 2 -591 -1 -1169 -1 -1285 -1 -115 1
-275 0 -355 -2 -80 -2 -155 0 -167 4 -31 10 -33 52 -7 101 61 109 131 502 96
537 -6 6 -12 22 -12 34 0 17 10 26 43 38 23 8 67 24 97 34 30 11 82 34 115 50
33 17 103 50 155 75 120 56 201 117 241 179 39 60 35 82 -25 142 -44 43 -95
67 -177 80 -46 8 -73 37 -64 68 4 13 20 42 36 66 16 24 29 45 29 48 0 11 42
96 71 146 45 76 86 184 98 256 12 75 -2 115 -53 150 -42 29 -61 28 -132 -8z
m136 -29 c0 -17 -21 -65 -76 -173 -8 -14 -14 -33 -14 -41 0 -9 -4 -17 -8 -19
-5 -1 -28 -41 -51 -88 -23 -47 -46 -92 -50 -100 -5 -8 -17 -33 -27 -55 -23
-49 -86 -133 -148 -199 -70 -73 -59 -96 44 -96 37 -1 76 -7 90 -15 14 -8 40
-14 58 -15 18 0 43 -5 54 -11 12 -6 53 -12 92 -13 65 -1 71 -3 74 -23 2 -16
-7 -28 -35 -45 -47 -29 -280 -143 -310 -152 -13 -4 -23 -11 -23 -16 0 -4 -10
-10 -22 -13 -36 -8 -94 -32 -109 -43 -24 -19 -133 -44 -190 -44 -33 0 -63 -6
-75 -15 -10 -8 -27 -15 -38 -15 -22 0 -148 -129 -143 -145 6 -14 75 -8 118 10
20 10 54 15 79 13 43 -3 45 -5 50 -38 10 -58 -20 -267 -46 -328 -8 -18 -14
-43 -14 -55 0 -27 -28 -107 -43 -126 -21 -25 -101 -53 -153 -54 -28 -1 -76 7
-106 17 -46 16 -63 17 -104 8 -61 -13 -117 -34 -137 -51 -23 -18 -54 -5 -66
29 -14 40 -67 90 -96 90 -13 0 -36 5 -52 11 -15 5 -72 15 -128 20 -201 19
-320 35 -336 44 -19 11 -62 62 -72 85 -4 8 -18 35 -32 59 -14 24 -25 50 -25
58 0 7 -16 30 -35 52 -28 31 -35 46 -35 81 0 48 -12 34 200 234 163 154 479
467 510 505 19 22 34 32 45 28 13 -6 15 -26 14 -144 -4 -204 8 -514 19 -525
18 -18 59 3 82 44 12 22 41 57 63 77 22 20 45 42 51 49 6 7 18 21 26 30 26 30
110 142 110 148 0 22 150 178 252 262 42 34 94 81 115 103 74 79 167 169 216
211 27 24 133 125 235 226 102 100 189 182 193 182 5 0 9 -9 9 -19z m-1488
-1963 c-17 -8 -26 -8 -34 0 -9 9 -4 12 23 11 32 0 33 -1 11 -11z m688 -88
c143 -9 213 -9 384 4 180 14 267 14 625 5 283 -8 494 -9 661 -2 135 5 940 9
1790 9 l1545 -1 3 -30 c2 -21 -8 -46 -33 -83 -19 -30 -35 -60 -35 -68 0 -7
-13 -36 -30 -62 -16 -27 -30 -57 -30 -66 0 -9 -10 -33 -23 -54 -13 -20 -34
-59 -48 -87 -13 -27 -27 -52 -32 -53 -4 -2 -17 -24 -28 -49 -11 -25 -25 -51
-30 -57 -41 -50 -96 -122 -104 -135 -57 -90 -315 -395 -385 -455 -13 -12 -49
-45 -78 -74 -29 -29 -61 -52 -69 -50 -21 4 -46 110 -39 163 18 123 20 127 82
118 71 -9 67 40 -6 77 -31 16 -42 28 -51 62 -7 24 -16 47 -21 52 -14 16 -9 66
7 72 19 8 19 44 0 70 -8 10 -15 28 -15 39 0 11 -7 31 -16 43 -20 29 -8 48 52
82 82 45 80 61 -17 163 -45 48 -88 87 -95 87 -6 0 -20 -12 -29 -27 -10 -15
-30 -38 -45 -52 -32 -32 -60 -75 -60 -95 0 -9 27 -43 60 -76 60 -60 68 -74 51
-84 -5 -3 -12 -21 -15 -41 -4 -19 -12 -38 -19 -42 -34 -22 -40 -42 -22 -78 23
-50 13 -82 -46 -144 -39 -41 -49 -59 -47 -79 3 -24 8 -27 53 -32 l50 -5 -4
-172 c-3 -151 -1 -175 15 -202 17 -29 17 -30 -7 -50 -13 -11 -28 -21 -34 -21
-5 0 -24 -14 -42 -30 -18 -17 -35 -30 -39 -30 -3 0 -23 -12 -43 -28 -45 -34
-70 -49 -98 -62 -13 -5 -23 -13 -23 -18 0 -5 -20 -19 -45 -31 -25 -12 -45 -26
-45 -31 0 -5 -13 -11 -30 -15 -16 -4 -32 -11 -35 -16 -4 -5 -14 -9 -23 -9 -10
0 -25 -9 -35 -20 -16 -19 -57 -28 -57 -12 -6 110 -4 230 3 239 5 7 31 13 57
13 40 0 52 4 69 26 27 34 26 50 0 72 -76 61 -130 120 -135 147 -7 36 26 85 58
85 16 0 19 5 14 23 -3 12 -6 27 -6 33 0 5 -19 31 -42 56 -24 26 -48 54 -54 64
-9 15 -12 15 -22 3 -95 -112 -122 -182 -83 -216 37 -31 27 -66 -40 -137 -47
-51 -61 -73 -63 -98 -1 -30 4 -35 47 -57 l47 -23 0 -112 c0 -74 -5 -128 -15
-157 -14 -42 -21 -47 -86 -77 -39 -18 -77 -32 -83 -32 -13 0 -98 -27 -141 -45
-39 -16 -164 -45 -193 -45 -13 0 -36 -6 -50 -14 -66 -34 -330 -57 -682 -58
-223 -1 -492 15 -533 31 -16 6 -44 11 -63 11 -20 0 -45 5 -57 12 -12 6 -42 15
-67 20 -110 19 -176 34 -190 43 -8 5 -37 13 -65 18 -104 17 -115 19 -124 31
-5 6 -11 85 -14 176 -4 91 -7 176 -9 190 -2 19 2 26 20 28 21 3 85 -28 107
-52 56 -63 166 -58 127 5 -7 10 -12 30 -12 44 0 23 -19 48 -133 167 -10 10
-27 37 -38 58 -12 22 -24 40 -28 40 -24 0 -58 163 -39 187 12 15 49 2 81 -28
12 -11 40 -30 62 -41 34 -18 43 -19 75 -8 77 28 69 57 -45 173 -52 52 -95 99
-95 104 0 4 -10 19 -22 33 -13 14 -40 51 -61 83 l-38 59 -32 -25 c-17 -13 -36
-32 -41 -43 -11 -19 -66 -94 -76 -104 -3 -3 -17 -23 -32 -45 -15 -22 -44 -53
-64 -70 -64 -53 -68 -99 -10 -135 49 -29 83 -26 104 9 21 37 61 58 73 39 5 -7
6 -20 2 -28 -4 -8 -7 -31 -8 -50 -1 -19 -5 -44 -10 -55 -8 -20 -70 -100 -91
-120 -28 -26 -104 -133 -104 -147 0 -9 -7 -21 -15 -28 -8 -7 -15 -19 -15 -28
0 -22 48 -62 75 -62 27 0 94 40 95 56 0 6 7 17 16 25 13 10 17 10 24 -1 11
-18 1 -211 -11 -224 -5 -6 -9 -27 -9 -48 0 -40 -19 -59 -43 -41 -6 5 -33 17
-58 27 -26 9 -55 26 -64 36 -10 11 -27 20 -38 20 -10 0 -38 13 -61 29 -24 15
-65 36 -92 46 -27 10 -56 23 -64 30 -19 14 -58 32 -87 40 -22 6 -23 11 -23
114 0 59 -4 132 -9 162 -16 91 -21 183 -12 198 7 11 13 10 36 -5 27 -18 73
-55 106 -86 26 -25 58 -40 70 -32 6 4 8 22 4 46 -5 29 -3 44 8 56 15 16 11 23
-43 87 -33 39 -60 73 -60 77 0 4 -13 22 -30 40 -16 18 -30 38 -30 45 0 6 -7
16 -16 21 -22 12 -38 142 -20 160 11 12 19 11 47 -3 19 -10 48 -28 66 -41 41
-31 78 -31 98 0 26 39 9 69 -98 179 -72 72 -113 124 -138 173 -51 96 -70 96
-129 -1 -51 -85 -124 -180 -212 -276 -24 -25 -23 -48 4 -76 15 -16 33 -23 61
-23 39 0 48 6 124 78 45 42 55 6 25 -91 -19 -60 -49 -99 -169 -223 -69 -70
-76 -93 -40 -130 27 -29 85 -32 109 -6 37 39 96 77 105 68 3 -2 -1 -15 -9 -28
-9 -16 -12 -59 -11 -148 2 -69 0 -133 -3 -142 -7 -22 -33 -24 -40 -3 -4 8 -12
15 -19 15 -8 0 -21 8 -31 18 -9 9 -28 25 -42 34 -14 9 -99 90 -190 180 -126
124 -197 205 -297 338 -72 96 -140 191 -151 210 -10 19 -31 51 -46 71 -16 20
-28 44 -28 53 0 9 -7 19 -15 22 -8 4 -15 12 -15 19 0 7 -7 18 -15 25 -8 7 -15
21 -15 31 0 10 -6 22 -13 26 -8 4 -17 15 -20 23 -4 8 -11 22 -17 30 -5 8 -19
35 -30 60 -11 25 -24 52 -28 60 -25 45 -42 83 -42 92 0 5 -9 21 -20 35 -19 25
-27 73 -14 86 10 10 927 -1 1124 -13z m76 -548 c13 -8 54 -86 54 -101 0 -5
-15 -19 -34 -31 -32 -19 -38 -20 -68 -7 -51 21 -59 36 -45 79 7 20 19 43 26
52 14 17 48 21 67 8z m733 -361 c22 -12 55 -85 48 -104 -3 -8 -18 -18 -34 -21
-15 -4 -36 -15 -45 -23 -16 -14 -21 -13 -53 11 -19 15 -35 28 -35 30 0 23 36
78 62 95 39 24 35 23 57 12z m-732 -43 c22 -24 37 -51 53 -92 8 -22 5 -27 -24
-45 -18 -12 -42 -21 -52 -21 -22 0 -84 58 -84 78 0 16 67 102 79 102 4 0 17
-10 28 -22z m3911 -11 c3 -21 0 -26 -12 -21 -19 7 -22 58 -3 52 6 -3 13 -17
15 -31z m-3168 -409 c35 -62 38 -93 9 -108 -11 -7 -29 -20 -40 -31 -27 -27
-47 -24 -85 17 -39 41 -42 61 -14 97 11 14 20 32 20 41 0 18 27 35 57 36 17 0
30 -14 53 -52z m2498 -30 c20 -20 13 -60 -15 -90 -37 -39 -51 -35 -58 16 -8
50 -3 63 29 76 29 12 30 12 44 -2z"/>
</g>
</svg>
