<?xml version="1.0" encoding="iso-8859-1"?>
<!-- Uploaded to: SVG Repo, www.svgrepo.com, Generator: SVG Repo Mixer Tools -->
<!DOCTYPE svg PUBLIC "-//W3C//DTD SVG 1.1//EN" "http://www.w3.org/Graphics/SVG/1.1/DTD/svg11.dtd">
<svg height="800px" width="800px" version="1.1" id="Capa_1" xmlns="http://www.w3.org/2000/svg" xmlns:xlink="http://www.w3.org/1999/xlink" 
	 viewBox="0 0 349.459 349.459" xml:space="preserve">
<g>
	<path style="fill:#000002;" d="M232.476,0H116.983c-12.407,0-22.5,10.094-22.5,22.5v198.248c0,12.406,10.093,22.5,22.5,22.5h55.093
		l2.948,8.344c3.463,9.8,14.317,17.477,24.712,17.477h14.849c5.514,0,10,4.486,10,10v19.816c-9.729,2.271-17,11.01-17,21.42v5.996
		c0,4.582,1.476,7.958,4.387,10.035c1.169,0.834,2.44,1.351,3.732,1.683v6.441c0,2.762,2.239,5,5,5c2.761,0,5-2.238,5-5v-6.046
		c2.312-0.091,4.727-0.099,7.061-0.024v6.07c0,2.762,2.239,5,5,5s5-2.238,5-5v-6.323c5.858-1.251,8.82-5.217,8.82-11.835v-5.996
		c0-10.41-7.271-19.148-17-21.42v-19.816c0-11.028-8.972-20-20-20h-14.849c-6.107,0-13.248-5.051-15.283-10.809l-1.77-5.012h49.793
		c12.407,0,22.5-10.094,22.5-22.5V22.5C254.976,10.094,244.882,0,232.476,0z M241.584,320.305v5.996
		c0,1.231-0.181,1.764-0.251,1.924c-0.2,0.094-0.934,0.344-3.068,0.344c-1.082,0-2.319-0.059-3.628-0.12
		c-1.529-0.072-3.262-0.153-5.053-0.153s-3.524,0.081-5.053,0.153c-1.309,0.061-2.545,0.12-3.628,0.12
		c-2.133,0-2.867-0.249-3.067-0.343c-0.071-0.161-0.251-0.693-0.251-1.925v-5.996c0-6.617,5.383-12,12-12
		S241.584,313.688,241.584,320.305z M116.983,15h115.492c4.136,0,7.5,3.364,7.5,7.5v155.933H109.483V22.5
		C109.483,18.364,112.848,15,116.983,15z M232.476,228.248H116.983c-4.136,0-7.5-3.363-7.5-7.5v-27.315h130.492v27.315
		C239.976,224.885,236.611,228.248,232.476,228.248z"/>
	<path style="fill:#000002;" d="M182.979,203.515h-16.5c-4.142,0-7.5,3.357-7.5,7.5c0,4.143,3.358,7.5,7.5,7.5h16.5
		c4.142,0,7.5-3.357,7.5-7.5C190.479,206.872,187.122,203.515,182.979,203.515z"/>
</g>
</svg>